<?xml version="1.0" encoding="UTF-8"?>
<svg version="1.1" xmlns="http://www.w3.org/2000/svg" width="150" height="150">
<path d="M0 0 C49.5 0 99 0 150 0 C150 49.5 150 99 150 150 C100.5 150 51 150 0 150 C0 100.5 0 51 0 0 Z " fill="#E12625" transform="translate(0,0)"/>
<path d="M0 0 C3.22337712 1.64507571 5.35880657 3.71761315 7 7 C8.258125 7.268125 9.51625 7.53625 10.8125 7.8125 C13.89097865 8.537825 15.03802607 9.03153382 17.5625 11.125 C19.6369404 15.2738808 19.01753956 17.49375339 18 22 C17.34 22.99 16.68 23.98 16 25 C13.94140625 25.2578125 13.94140625 25.2578125 11.5625 25.125 C8.5403512 24.97563515 6.93484836 25.02171721 4 26 C4.763125 25.95875 5.52625 25.9175 6.3125 25.875 C9 26 9 26 12 28 C12.1875 31.625 12.1875 31.625 12 35 C12.66 35 13.32 35 14 35 C14.33 33.68 14.66 32.36 15 31 C16.65 30.67 18.3 30.34 20 30 C21.31223496 33.93670488 20.24296256 36.12488144 19 40 C21.64 40.33 24.28 40.66 27 41 C27 43.97 27 46.94 27 50 C27.99 50 28.98 50 30 50 C29.979375 48.88625 29.95875 47.7725 29.9375 46.625 C30 43 30 43 31 41 C31.99 41 32.98 41 34 41 C34 44.3 34 47.6 34 51 C35.32 51 36.64 51 38 51 C38.33 51.99 38.66 52.98 39 54 C33.0885256 54.77313045 27.8685408 55.14819277 22 54 C22 54.66 22 55.32 22 56 C23.32 56.33 24.64 56.66 26 57 C25.67 58.32 25.34 59.64 25 61 C18.4893617 62.91489362 18.4893617 62.91489362 15.125 63.5 C14.073125 63.7475 14.073125 63.7475 13 64 C12.67 64.66 12.34 65.32 12 66 C12 65.34 12 64.68 12 64 C5.21994416 63.90823985 -1.30819284 63.88469881 -8 65 C-9.66628955 65.03545297 -11.33409803 65.05048188 -13 65 C-13 63.68 -13 62.36 -13 61 C-10.525 60.505 -10.525 60.505 -8 60 C-8 59.34 -8 58.68 -8 58 C-7.01 58 -6.02 58 -5 58 C-5 57.01 -5 56.02 -5 55 C-6.98 54.67 -8.96 54.34 -11 54 C-11 50.04 -11 46.08 -11 42 C-6 41 -6 41 -4 41 C-4 40.34 -4 39.68 -4 39 C-3.01 39 -2.02 39 -1 39 C-1.33 37.35 -1.66 35.7 -2 34 C-3.299375 34.495 -3.299375 34.495 -4.625 35 C-8.88301887 36.26163522 -12.21875187 36.74999921 -16.375 35 C-17.179375 34.505 -17.179375 34.505 -18 34 C-18 34.66 -18 35.32 -18 36 C-18.99 36.495 -18.99 36.495 -20 37 C-20 37.66 -20 38.32 -20 39 C-18.35 39.33 -16.7 39.66 -15 40 C-15.14084796 41.79206547 -15.28783701 43.58364917 -15.4375 45.375 C-15.51871094 46.37273437 -15.59992188 47.37046875 -15.68359375 48.3984375 C-16 51 -16 51 -17 53 C-20.375 53.1875 -20.375 53.1875 -24 53 C-24.66 52.01 -25.32 51.02 -26 50 C-26.33 50.99 -26.66 51.98 -27 53 C-27.99 53 -28.98 53 -30 53 C-30 52.34 -30 51.68 -30 51 C-30.8971875 51.495 -30.8971875 51.495 -31.8125 52 C-34 53 -34 53 -37 53 C-36.28571429 44.42857143 -36.28571429 44.42857143 -33 41 C-31.68 41.33 -30.36 41.66 -29 42 C-28.67 41.01 -28.34 40.02 -28 39 C-26.515 38.505 -26.515 38.505 -25 38 C-27.97 37.01 -30.94 36.02 -34 35 C-34.17942163 31.05272412 -34.09350689 28.4019487 -32 25 C-31.34 25 -30.68 25 -30 25 C-30.33 24.34 -30.66 23.68 -31 23 C-31.34708476 17.70695745 -31.51351894 14.26641586 -28 10 C-25.00651705 7.90456194 -22.59951941 7.8000267 -19 8 C-18.95875 7.4225 -18.9175 6.845 -18.875 6.25 C-17.83850604 3.58472981 -16.51381714 2.25219274 -14.07421875 0.76953125 C-9.51073112 -0.92351407 -4.74975847 -0.77321649 0 0 Z " fill="#CB3232" transform="translate(81,43)"/>
<path d="M0 0 C3.05245717 1.84419287 4.59817781 2.88726164 5.8125 6.25 C5.874375 6.8275 5.93625 7.405 6 8 C7.0725 7.9175 8.145 7.835 9.25 7.75 C13 8 13 8 15.4375 9.625 C17.43777431 12.66541695 17.45667063 14.4227467 17 18 C16.34 18.99 15.68 19.98 15 21 C14.33097656 20.9278125 13.66195312 20.855625 12.97265625 20.78125 C-0.38295006 19.49050684 -13.65076482 19.69990057 -27 21 C-28.71074208 17.77011895 -29.55509037 15.70060244 -29 12 C-27.3125 9.6875 -27.3125 9.6875 -25 8 C-24.175 8.04125 -23.35 8.0825 -22.5 8.125 C-21.2625 8.063125 -21.2625 8.063125 -20 8 C-19.38125 7.071875 -18.7625 6.14375 -18.125 5.1875 C-13.73617119 -1.39574321 -7.15531053 -1.98311977 0 0 Z " fill="#DC2725" transform="translate(81,45)"/>
<path d="M0 0 C3.71599191 -0.20086443 4.77208445 -0.1519437 8 2 C8.1875 5.625 8.1875 5.625 8 9 C5.69 9.66 3.38 10.32 1 11 C1 10.34 1 9.68 1 9 C-0.65 9.33 -2.3 9.66 -4 10 C-3.67 11.32 -3.34 12.64 -3 14 C-1.081875 13.938125 -1.081875 13.938125 0.875 13.875 C3.0546875 13.8046875 3.0546875 13.8046875 5 14 C7 16 7 16 7.1953125 18.3828125 C7.17210938 19.28773437 7.14890625 20.19265625 7.125 21.125 C7.09792969 22.49011719 7.09792969 22.49011719 7.0703125 23.8828125 C7.04710938 24.58148438 7.02390625 25.28015625 7 26 C4.35541621 27.32229189 2.32238699 27.09677194 -0.625 27.0625 C-1.62789062 27.05347656 -2.63078125 27.04445313 -3.6640625 27.03515625 C-4.43492188 27.02355469 -5.20578125 27.01195313 -6 27 C-6.33 26.34 -6.66 25.68 -7 25 C-7.598125 25.33 -8.19625 25.66 -8.8125 26 C-11 27 -11 27 -14 27 C-14 23.04 -14 19.08 -14 15 C-12.02 15 -10.04 15 -8 15 C-8 14.34 -8 13.68 -8 13 C-7.01 13 -6.02 13 -5 13 C-5.495 11.948125 -5.495 11.948125 -6 10.875 C-7.09044562 7.73996884 -7.15322643 5.29436818 -7 2 C-6.34 2 -5.68 2 -5 2 C-4.67 3.32 -4.34 4.64 -4 6 C-3.67 4.68 -3.34 3.36 -3 2 C-2.01 2 -1.02 2 0 2 C0 1.34 0 0.68 0 0 Z " fill="#CF4141" transform="translate(85,69)"/>
<path d="M0 0 C2.0625 0.4375 2.0625 0.4375 4 1 C4.33 2.98 4.66 4.96 5 7 C3.68 6.67 2.36 6.34 1 6 C1 6.66 1 7.32 1 8 C0.01 8.495 0.01 8.495 -1 9 C-1 9.66 -1 10.32 -1 11 C1.475 11.495 1.475 11.495 4 12 C3.85915204 13.79206547 3.71216299 15.58364917 3.5625 17.375 C3.48128906 18.37273437 3.40007812 19.37046875 3.31640625 20.3984375 C3 23 3 23 2 25 C-1.375 25.1875 -1.375 25.1875 -5 25 C-5.66 24.01 -6.32 23.02 -7 22 C-7.33 22.99 -7.66 23.98 -8 25 C-8.99 25 -9.98 25 -11 25 C-11 24.34 -11 23.68 -11 23 C-11.598125 23.33 -12.19625 23.66 -12.8125 24 C-15 25 -15 25 -18 25 C-17.28571429 16.42857143 -17.28571429 16.42857143 -14 13 C-12.68 13.33 -11.36 13.66 -10 14 C-9.67 13.01 -9.34 12.02 -9 11 C-8.01 10.67 -7.02 10.34 -6 10 C-6.94875 9.731875 -7.8975 9.46375 -8.875 9.1875 C-12 8 -12 8 -14 5 C-14 4.01 -14 3.02 -14 2 C-12 2 -10 2 -8 2 C-7.67 2.66 -7.34 3.32 -7 4 C-6.67 3.01 -6.34 2.02 -6 1 C-5.34 1 -4.68 1 -4 1 C-4 2.98 -4 4.96 -4 7 C-3.34 7 -2.68 7 -2 7 C-1.855625 6.030625 -1.71125 5.06125 -1.5625 4.0625 C-1 1 -1 1 0 0 Z " fill="#D53A3A" transform="translate(62,71)"/>
<path d="M0 0 C1.67542976 0.28604898 3.34385343 0.61781233 5 1 C4.34 3.97 3.68 6.94 3 10 C3.66 10 4.32 10 5 10 C6.5121867 13.02437339 6.17263369 15.66241534 6 19 C5 21.4375 5 21.4375 4 23 C-1.625 23.25 -1.625 23.25 -5 21 C-5.4765625 18.87109375 -5.4765625 18.87109375 -5.625 16.4375 C-5.60362942 13.41923553 -5.60362942 13.41923553 -7 11 C-8.34747084 10.76924918 -9.70377565 10.58846937 -11.0625 10.4375 C-12.361875 10.293125 -13.66125 10.14875 -15 10 C-15.33 8.68 -15.66 7.36 -16 6 C-14.34385343 5.61781233 -12.67542976 5.28604898 -11 5 C-10.67 5.33 -10.34 5.66 -10 6 C-8.08575543 5.8981629 -8.08575543 5.8981629 -5.9375 5.5625 C-3.9884375 5.2840625 -3.9884375 5.2840625 -2 5 C-1.855625 4.360625 -1.71125 3.72125 -1.5625 3.0625 C-1 1 -1 1 0 0 Z " fill="#C63B3C" transform="translate(97,73)"/>
<path d="M0 0 C3.22337712 1.64507571 5.35880657 3.71761315 7 7 C8.258125 7.268125 9.51625 7.53625 10.8125 7.8125 C13.89097865 8.537825 15.03802607 9.03153382 17.5625 11.125 C19.6369404 15.2738808 19.01753956 17.49375339 18 22 C17.34 22.99 16.68 23.98 16 25 C15.07960937 24.9278125 14.15921875 24.855625 13.2109375 24.78125 C-0.61576686 23.76747942 -14.18342015 23.91634668 -28 25 C-31.0078125 19.390625 -31.0078125 19.390625 -30.9375 15.875 C-29.82319306 12.45779204 -28.93200693 11.08326808 -26 9 C-22.25 8.25 -22.25 8.25 -19 8 C-18.95875 7.4225 -18.9175 6.845 -18.875 6.25 C-17.83850604 3.58472981 -16.51381714 2.25219274 -14.07421875 0.76953125 C-9.51073112 -0.92351407 -4.74975847 -0.77321649 0 0 Z M-16 4 C-17.051875 5.5778125 -17.051875 5.5778125 -18.125 7.1875 C-19.053125 8.5796875 -19.053125 8.5796875 -20 10 C-22.5 10.125 -22.5 10.125 -25 10 C-27.54002013 11.37283423 -27.54002013 11.37283423 -29 14 C-29.08351188 16.8672411 -28.60702132 19.1516692 -28 22 C-27.67 22.33 -27.34 22.66 -27 23 C-25.16332544 22.90510515 -23.32995225 22.74594818 -21.5 22.5625 C-9.31004563 21.53217455 2.83533155 21.68743462 15 23 C17.32749345 19.50875983 17.50299316 18.10777749 17 14 C15.56338689 11.47993156 15.56338689 11.47993156 13 10 C9.3324787 9.66582071 9.3324787 9.66582071 6 10 C5.7525 9.236875 5.505 8.47375 5.25 7.6875 C3.79290602 4.55474795 3.06848449 3.57358179 0 2 C-6.03154686 0.48042424 -10.55275796 0.68893131 -16 4 Z " fill="#FABAB5" transform="translate(81,43)"/>
<path d="M0 0 C0.33 0.66 0.66 1.32 1 2 C2.0725 1.9175 3.145 1.835 4.25 1.75 C8 2 8 2 10.4375 3.625 C12.43777431 6.66541695 12.45667063 8.4227467 12 12 C11.34 12.99 10.68 13.98 10 15 C9.29327148 14.9285376 8.58654297 14.8570752 7.85839844 14.78344727 C-0.03142076 14.04803185 -7.82977406 13.87926304 -15.75 13.9375 C-16.9359375 13.94201172 -18.121875 13.94652344 -19.34375 13.95117188 C-22.22922228 13.96280684 -25.11458213 13.9791516 -28 14 C-28 13.01 -28 12.02 -28 11 C-27.40832031 10.89042969 -26.81664062 10.78085937 -26.20703125 10.66796875 C-21.02209446 9.63447153 -21.02209446 9.63447153 -16.3125 7.3125 C-14 6 -14 6 -11.125 6.125 C-8 7 -8 7 -4.5 8.5625 C0.12719919 10.46295681 3.16031656 10.63988989 7.875 9 C8.926875 8.505 8.926875 8.505 10 8 C9.505 6.515 9.505 6.515 9 5 C5.7 4.67 2.4 4.34 -1 4 C-0.67 2.68 -0.34 1.36 0 0 Z " fill="#CE2C2B" transform="translate(86,51)"/>
<path d="M0 0 C0.33 0 0.66 0 1 0 C1.33 1.65 1.66 3.3 2 5 C6.14847132 4.46173471 6.14847132 4.46173471 10 2.9375 C12.71453756 1.66506052 15.04316249 1.86559829 18 2 C17.34 2.66 16.68 3.32 16 4 C16.53109375 4.26554687 17.0621875 4.53109375 17.609375 4.8046875 C21.07291667 6.53645833 24.53645833 8.26822917 28 10 C20.7154213 9.37201908 20.7154213 9.37201908 16.875 7.375 C13.28219214 5.65670059 11.79316277 5.91623921 8 7 C5.61702842 7.91949004 3.32327742 8.93129239 1 10 C1.33 10.66 1.66 11.32 2 12 C0.35 12.33 -1.3 12.66 -3 13 C-3 13.33 -3 13.66 -3 14 C-4.65 14 -6.3 14 -8 14 C-9.84753138 10.88229079 -10.54282688 8.61884589 -10 5 C-8.3125 2.6875 -8.3125 2.6875 -6 1 C-3.3125 0.8125 -3.3125 0.8125 -1 1 C-0.67 0.67 -0.34 0.34 0 0 Z " fill="#D52C2C" transform="translate(62,52)"/>
<path d="M0 0 C0.391875 0.639375 0.78375 1.27875 1.1875 1.9375 C3.38472296 4.43778819 4.75791433 4.64950425 8 5 C8 5.33 8 5.66 8 6 C3.05 6.33 -1.9 6.66 -7 7 C-4.50109523 9.49890477 -3.01347764 9.51712638 0.4375 10.0625 C3.43568448 10.54556301 6.11346182 11.03782061 9 12 C8.625 14.4375 8.625 14.4375 8 17 C5.3333581 18.33332095 3.83319697 17.67102033 1 17 C1 16.34 1 15.68 1 15 C0.15695313 14.97421875 -0.68609375 14.9484375 -1.5546875 14.921875 C-3.19824219 14.83679688 -3.19824219 14.83679688 -4.875 14.75 C-5.96554688 14.70359375 -7.05609375 14.6571875 -8.1796875 14.609375 C-11 14 -11 14 -12.3828125 11.953125 C-12.58648437 11.30859375 -12.79015625 10.6640625 -13 10 C-12.34 10 -11.68 10 -11 10 C-10.9175 9.21625 -10.835 8.4325 -10.75 7.625 C-10 5 -10 5 -8.125 3.6875 C-6 3 -6 3 -3 3 C-3 3.66 -3 4.32 -3 5 C-2.01 5 -1.02 5 0 5 C0 3.35 0 1.7 0 0 Z " fill="#DD4B46" transform="translate(54,91)"/>
<path d="M0 0 C0 0.99 0 1.98 0 3 C-0.78246094 3.19335938 -1.56492188 3.38671875 -2.37109375 3.5859375 C-3.38300781 3.84632812 -4.39492187 4.10671875 -5.4375 4.375 C-6.95150391 4.75785156 -6.95150391 4.75785156 -8.49609375 5.1484375 C-11.15570324 5.72573954 -11.15570324 5.72573954 -12 8 C-12 7.34 -12 6.68 -12 6 C-18.78005584 5.90823985 -25.30819284 5.88469881 -32 7 C-33.66628955 7.03545297 -35.33409803 7.05048188 -37 7 C-37 5.68 -37 4.36 -37 3 C-36.46375 3.02320312 -35.9275 3.04640625 -35.375 3.0703125 C-26.30382063 3.27918834 -17.1179924 2.24083226 -8.2265625 0.4375 C-5.45723754 -0.10664806 -2.81448716 -0.06545319 0 0 Z " fill="#E97A77" transform="translate(105,101)"/>
<path d="M0 0 C1.32 0 2.64 0 4 0 C4 2.97 4 5.94 4 9 C4.99 9 5.98 9 7 9 C6.979375 7.88625 6.95875 6.7725 6.9375 5.625 C7 2 7 2 8 0 C8.99 0 9.98 0 11 0 C11 3.3 11 6.6 11 10 C12.32 10 13.64 10 15 10 C15.33 10.99 15.66 11.98 16 13 C10.16524985 13.85330338 5.55139349 14.48351814 0 12 C0 8.04 0 4.08 0 0 Z " fill="#DD605E" transform="translate(104,84)"/>
<path d="M0 0 C1.22203125 0.01417969 2.4440625 0.02835937 3.703125 0.04296875 C5.52070312 0.05263672 5.52070312 0.05263672 7.375 0.0625 C10.65233491 0.21634869 13.73461604 0.61342332 16.953125 1.23046875 C14.98930493 2.73606414 13.17049134 4.12178558 10.953125 5.23046875 C10.29757381 7.7578011 10.29757381 7.7578011 9.953125 10.23046875 C9.623125 10.23046875 9.293125 10.23046875 8.953125 10.23046875 C8.953125 8.58046875 8.953125 6.93046875 8.953125 5.23046875 C8.293125 5.23046875 7.633125 5.23046875 6.953125 5.23046875 C6.953125 7.21046875 6.953125 9.19046875 6.953125 11.23046875 C1.203125 12.23046875 1.203125 12.23046875 -1.046875 12.23046875 C-1.046875 9.59046875 -1.046875 6.95046875 -1.046875 4.23046875 C-0.386875 3.90046875 0.273125 3.57046875 0.953125 3.23046875 C-2.016875 2.73546875 -2.016875 2.73546875 -5.046875 2.23046875 C-3.046875 0.23046875 -3.046875 0.23046875 0 0 Z " fill="#D43D3A" transform="translate(71.046875,65.76953125)"/>
<path d="M0 0 C0.33 0 0.66 0 1 0 C1 3.63 1 7.26 1 11 C1.99 11 2.98 11 4 11 C4.33 10.01 4.66 9.02 5 8 C5 8.66 5 9.32 5 10 C6.32 9.01 7.64 8.02 9 7 C9 8.32 9 9.64 9 11 C9.680625 10.835 10.36125 10.67 11.0625 10.5 C14.4164822 9.92910941 17.60389805 9.93340977 21 10 C21 10.66 21 11.32 21 12 C19.02 12 17.04 12 15 12 C14.34 13.65 13.68 15.3 13 17 C13.66 17.33 14.32 17.66 15 18 C8.375 20.125 8.375 20.125 5 19 C4.67 19.66 4.34 20.32 4 21 C3.67 19.35 3.34 17.7 3 16 C3.99 16 4.98 16 6 16 C6 15.01 6 14.02 6 13 C3.03 12.505 3.03 12.505 0 12 C0 8.04 0 4.08 0 0 Z " fill="#DA2D2C" transform="translate(70,85)"/>
<path d="M0 0 C1.32 0.33 2.64 0.66 4 1 C4.33 1.66 4.66 2.32 5 3 C5.66 2.01 6.32 1.02 7 0 C8.32 0 9.64 0 11 0 C11 3.96 11 7.92 11 12 C10.01 12 9.02 12 8 12 C7.67 11.34 7.34 10.68 7 10 C6.401875 10.33 5.80375 10.66 5.1875 11 C3 12 3 12 0 12 C0 8.04 0 4.08 0 0 Z " fill="#FCE2E0" transform="translate(71,84)"/>
<path d="M0 0 C1.32 0.33 2.64 0.66 4 1 C4.33 1.66 4.66 2.32 5 3 C5.433125 2.505 5.86625 2.01 6.3125 1.5 C8 0 8 0 11 0 C11 3.96 11 7.92 11 12 C10.01 12 9.02 12 8 12 C7.67 11.01 7.34 10.02 7 9 C6.67 9.66 6.34 10.32 6 11 C2.9375 11.625 2.9375 11.625 0 12 C0 8.04 0 4.08 0 0 Z " fill="#FEE7E6" transform="translate(32,84)"/>
<path d="M0 0 C2 1 2 1 3 3 C2.34 3.66 1.68 4.32 1 5 C1.99 5.33 2.98 5.66 4 6 C3.67 6.99 3.34 7.98 3 9 C3 10.155 3 11.31 3 12.5 C3 16 3 16 2 19 C1.34 19 0.68 19 0 19 C0.33 16.03 0.66 13.06 1 10 C-0.65 10.33 -2.3 10.66 -4 11 C-4.33 11.99 -4.66 12.98 -5 14 C-5.66 14 -6.32 14 -7 14 C-7 11.69 -7 9.38 -7 7 C-9.64 6.34 -12.28 5.68 -15 5 C-15.33 5.66 -15.66 6.32 -16 7 C-16.99 6.34 -17.98 5.68 -19 5 C-14.08960185 3.3283751 -10.19554806 2.85136806 -5.015625 3.22265625 C-2.42351188 2.93631817 -1.62470853 1.96918787 0 0 Z " fill="#DA3133" transform="translate(100,64)"/>
<path d="M0 0 C1.32 0 2.64 0 4 0 C4.33 2.64 4.66 5.28 5 8 C5.33 5.36 5.66 2.72 6 0 C7.32 0.33 8.64 0.66 10 1 C10.28571429 8.42857143 10.28571429 8.42857143 8 12 C5.125 12.1875 5.125 12.1875 2 12 C-0.13586678 8.79619983 -0.23132175 7.98060033 -0.125 4.3125 C-0.10695313 3.50425781 -0.08890625 2.69601563 -0.0703125 1.86328125 C-0.04710938 1.24839844 -0.02390625 0.63351563 0 0 Z " fill="#FEECEE" transform="translate(93,84)"/>
<path d="M0 0 C1.875 0.3125 1.875 0.3125 4 1 C6.67927341 5.01891012 6.15601248 7.24161923 6 12 C5.01 12 4.02 12 3 12 C3 11.34 3 10.68 3 10 C2.401875 10.33 1.80375 10.66 1.1875 11 C-1 12 -1 12 -4 12 C-3.28571429 3.42857143 -3.28571429 3.42857143 0 0 Z " fill="#F5D9D7" transform="translate(48,84)"/>
<path d="M0 0 C2.31 0 4.62 0 7 0 C7.87867729 3.73437848 8.08912219 7.16774573 8 11 C6 12 6 12 0 12 C0 8.04 0 4.08 0 0 Z " fill="#F3D9D5" transform="translate(84,84)"/>
<path d="M0 0 C1.4540625 0.0309375 1.4540625 0.0309375 2.9375 0.0625 C3.2675 1.3825 3.5975 2.7025 3.9375 4.0625 C2.6175 4.0625 1.2975 4.0625 -0.0625 4.0625 C1.2575 4.7225 2.5775 5.3825 3.9375 6.0625 C3.6075 8.0425 3.2775 10.0225 2.9375 12.0625 C0.6275 12.0625 -1.6825 12.0625 -4.0625 12.0625 C-4.3925 10.7425 -4.7225 9.4225 -5.0625 8.0625 C-3.7425 8.0625 -2.4225 8.0625 -1.0625 8.0625 C-2.3825 7.4025 -3.7025 6.7425 -5.0625 6.0625 C-3.98897059 0.08140756 -3.98897059 0.08140756 0 0 Z " fill="#FADCD9" transform="translate(61.0625,83.9375)"/>
<path d="M0 0 C0.66 0.66 1.32 1.32 2 2 C1.54625 2.391875 1.0925 2.78375 0.625 3.1875 C-1.27642919 5.30832487 -2.06204028 7.33042235 -3 10 C-3.33 9.34 -3.66 8.68 -4 8 C-8.41522109 9.26974972 -8.41522109 9.26974972 -12 12 C-12.02375926 13.9931567 -12.02375926 13.9931567 -11.625 16.125 C-11.41875 17.40375 -11.2125 18.6825 -11 20 C-10.40832031 19.98839844 -9.81664062 19.97679688 -9.20703125 19.96484375 C-4.99768215 19.91677614 -1.1077667 19.93993117 3 21 C3 21.33 3 21.66 3 22 C-1.95 22.33 -6.9 22.66 -12 23 C-15.57894737 15.84210526 -15.57894737 15.84210526 -14 11 C-11.62427019 7.61915374 -10.35603475 7.07120695 -6.25 6.25 C-4.64125 6.12625 -4.64125 6.12625 -3 6 C-2.87625 5.38125 -2.7525 4.7625 -2.625 4.125 C-2 2 -2 2 0 0 Z " fill="#FBB0A8" transform="translate(65,45)"/>
<path d="M0 0 C0.66 0.33 1.32 0.66 2 1 C2 1.66 2 2.32 2 3 C3.134375 3.12375 4.26875 3.2475 5.4375 3.375 C6.613125 3.58125 7.78875 3.7875 9 4 C9.33 4.66 9.66 5.32 10 6 C7.87630763 6.36192504 5.7509887 6.71431747 3.625 7.0625 C1.84996094 7.35833984 1.84996094 7.35833984 0.0390625 7.66015625 C-3 8 -3 8 -5 7 C-5.66 7.66 -6.32 8.32 -7 9 C-7.66 8.67 -8.32 8.34 -9 8 C-8.34 6.35 -7.68 4.7 -7 3 C-5.02 3 -3.04 3 -1 3 C-0.67 2.01 -0.34 1.02 0 0 Z " fill="#DB2626" transform="translate(92,94)"/>
<path d="M0 0 C0 0.99 0 1.98 0 3 C-0.78246094 3.19335938 -1.56492187 3.38671875 -2.37109375 3.5859375 C-3.38300781 3.84632812 -4.39492187 4.10671875 -5.4375 4.375 C-6.95150391 4.75785156 -6.95150391 4.75785156 -8.49609375 5.1484375 C-11.15570324 5.72573954 -11.15570324 5.72573954 -12 8 C-12 7.34 -12 6.68 -12 6 C-13.98 6 -15.96 6 -18 6 C-15.39121413 2.0868212 -13.00117973 1.51312301 -8.5625 0.375 C-5.67867119 -0.04702373 -2.91055341 -0.06768729 0 0 Z " fill="#DE5553" transform="translate(105,101)"/>
<path d="M0 0 C-0.66 0.66 -1.32 1.32 -2 2 C-1.46890625 2.26554687 -0.9378125 2.53109375 -0.390625 2.8046875 C3.07291667 4.53645833 6.53645833 6.26822917 10 8 C2.7154213 7.37201908 2.7154213 7.37201908 -1.125 5.375 C-4.71780786 3.65670059 -6.20683723 3.91623921 -10 5 C-11.19625 5.53625 -12.3925 6.0725 -13.625 6.625 C-17 8 -17 8 -19.4375 7.6875 C-19.953125 7.460625 -20.46875 7.23375 -21 7 C-21 6.67 -21 6.34 -21 6 C-20.41992188 5.81824219 -19.83984375 5.63648438 -19.2421875 5.44921875 C-15.58416428 4.27213207 -12.21956946 3.11624266 -8.8125 1.3125 C-5.64342224 -0.16640295 -3.45563742 -0.24683124 0 0 Z " fill="#FBAEA8" transform="translate(80,54)"/>
<path d="M0 0 C4.82360189 -0.19294408 8.49646738 0.24252386 13 2 C12.625 4.4375 12.625 4.4375 12 7 C9.3333581 8.33332095 7.83319697 7.67102033 5 7 C5 6.34 5 5.68 5 5 C3.02 5 1.04 5 -1 5 C-1 4.67 -1 4.34 -1 4 C0.65 4 2.3 4 4 4 C4 3.01 4 2.02 4 1 C2.68 0.67 1.36 0.34 0 0 Z " fill="#D42E32" transform="translate(50,101)"/>
<path d="M0 0 C3 3.625 3 3.625 3 7 C2.01 7 1.02 7 0 7 C0 7.66 0 8.32 0 9 C3.3 8.67 6.6 8.34 10 8 C9.67 8.66 9.34 9.32 9 10 C8.01 10 7.02 10 6 10 C6 11.65 6 13.3 6 15 C5.34 13.68 4.68 12.36 4 11 C3.34 11 2.68 11 2 11 C1.67 12.32 1.34 13.64 1 15 C0.67 14.01 0.34 13.02 0 12 C-0.66 11.67 -1.32 11.34 -2 11 C-1.67 12.65 -1.34 14.3 -1 16 C-1.66 16 -2.32 16 -3 16 C-3.17942163 12.05272412 -3.09350689 9.4019487 -1 6 C-0.34 6 0.32 6 1 6 C0.67 4.02 0.34 2.04 0 0 Z " fill="#CE3A3A" transform="translate(50,62)"/>
<path d="M0 0 C2.9804322 1.37447116 4.58660256 2.6988536 7 5 C7 5.66 7 6.32 7 7 C8.98 7 10.96 7 13 7 C13 7.66 13 8.32 13 9 C13.66 9 14.32 9 15 9 C14.67 9.66 14.34 10.32 14 11 C8.1175538 9.45397247 4.47917947 8.28835279 1 3 C-1.88415883 1.55792059 -4.41721528 1.90605113 -7.625 1.9375 C-9.40777344 1.95103516 -9.40777344 1.95103516 -11.2265625 1.96484375 C-12.59941406 1.98224609 -12.59941406 1.98224609 -14 2 C-14.33 1.34 -14.66 0.68 -15 0 C-10.60202144 -2.19898928 -4.69058662 -0.83004443 0 0 Z " fill="#C93433" transform="translate(82,42)"/>
<path d="M0 0 C2.31 0.33 4.62 0.66 7 1 C6.67 1.66 6.34 2.32 6 3 C5.01 3 4.02 3 3 3 C2.67 4.32 2.34 5.64 2 7 C0.68 6.67 -0.64 6.34 -2 6 C-3.96189209 9.6678852 -5.39301257 12.87248551 -6 17 C-6.33 17 -6.66 17 -7 17 C-7 13.37 -7 9.74 -7 6 C-3 4 -3 4 0 4 C0 2.68 0 1.36 0 0 Z " fill="#D23B3A" transform="translate(50,79)"/>
<path d="M0 0 C0.66 0 1.32 0 2 0 C2.125 5.75 2.125 5.75 1 8 C-1.8125 8.25 -1.8125 8.25 -5 8 C-6.875 6.1875 -6.875 6.1875 -8 4 C-8 3.01 -8 2.02 -8 1 C-6 1 -4 1 -2 1 C-1.67 1.66 -1.34 2.32 -1 3 C-0.67 2.01 -0.34 1.02 0 0 Z " fill="#F9CAC6" transform="translate(56,72)"/>
<path d="M0 0 C1.22589844 0.15275391 1.22589844 0.15275391 2.4765625 0.30859375 C3.41628906 0.43427734 3.41628906 0.43427734 4.375 0.5625 C4.375 1.2225 4.375 1.8825 4.375 2.5625 C5.035 2.8925 5.695 3.2225 6.375 3.5625 C5.375 4.5625 5.375 4.5625 2.87109375 4.66015625 C1.35708984 4.64275391 1.35708984 4.64275391 -0.1875 4.625 C-1.19941406 4.61597656 -2.21132812 4.60695313 -3.25390625 4.59765625 C-4.03636719 4.58605469 -4.81882812 4.57445313 -5.625 4.5625 C-5.955 3.2425 -6.285 1.9225 -6.625 0.5625 C-4.10446405 -0.69776798 -2.7707902 -0.35624445 0 0 Z " fill="#DD2625" transform="translate(87.625,78.4375)"/>
<path d="M0 0 C0.99 0 1.98 0 3 0 C3 3.3 3 6.6 3 10 C4.32 10 5.64 10 7 10 C7 10.66 7 11.32 7 12 C4.69 12 2.38 12 0 12 C0 8.04 0 4.08 0 0 Z " fill="#FEE5E1" transform="translate(104,84)"/>
<path d="M0 0 C1.875 1.4375 1.875 1.4375 3 3 C3 3.33 3 3.66 3 4 C-1.95 4 -6.9 4 -12 4 C-12 3.34 -12 2.68 -12 2 C-7.8549309 0.42092606 -4.4448552 -0.4938728 0 0 Z " fill="#DF2726" transform="translate(80,59)"/>
<path d="M0 0 C0.33 0.33 0.66 0.66 1 1 C0.91062197 2.52519276 0.75462854 4.04681929 0.5625 5.5625 C0.46066406 6.38878906 0.35882813 7.21507813 0.25390625 8.06640625 C0.17011719 8.70449219 0.08632813 9.34257813 0 10 C-0.66 10 -1.32 10 -2 10 C-2 7.66666667 -2 5.33333333 -2 3 C-4.64 3 -7.28 3 -10 3 C-10 2.34 -10 1.68 -10 1 C-6.50615721 -0.16461426 -3.66344611 -0.13568319 0 0 Z " fill="#D02627" transform="translate(60,68)"/>
<path d="M0 0 C0.99 0 1.98 0 3 0 C3 3.3 3 6.6 3 10 C3.99 10 4.98 10 6 10 C6 10.66 6 11.32 6 12 C4.02 12 2.04 12 0 12 C0 8.04 0 4.08 0 0 Z " fill="#FEE8E5" transform="translate(112,84)"/>
<path d="M0 0 C4 1 4 1 5.25 3.0625 C5.4975 3.701875 5.745 4.34125 6 5 C4.68 4.67 3.36 4.34 2 4 C2 4.99 2 5.98 2 7 C2.66 7 3.32 7 4 7 C3.67 8.65 3.34 10.3 3 12 C2.01 12 1.02 12 0 12 C0 8.04 0 4.08 0 0 Z " fill="#F8DFDB" transform="translate(71,84)"/>
<path d="M0 0 C1.90625 1.40625 1.90625 1.40625 2.515625 4.2265625 C2.56203125 5.31710938 2.6084375 6.40765625 2.65625 7.53125 C2.71296875 8.62695312 2.7696875 9.72265625 2.828125 10.8515625 C2.86679688 12.11613281 2.86679688 12.11613281 2.90625 13.40625 C1.91625 13.40625 0.92625 13.40625 -0.09375 13.40625 C-0.09375 10.10625 -0.09375 6.80625 -0.09375 3.40625 C-0.898125 3.2825 -1.7025 3.15875 -2.53125 3.03125 C-3.376875 2.825 -4.2225 2.61875 -5.09375 2.40625 C-5.42375 1.74625 -5.75375 1.08625 -6.09375 0.40625 C-3.73860381 -0.43487364 -2.43261652 -0.68984648 0 0 Z " fill="#D3383A" transform="translate(115.09375,80.59375)"/>
<path d="M0 0 C3.375 0.3125 3.375 0.3125 7 1 C9 4 9 4 8.625 6.1875 C8.41875 6.785625 8.2125 7.38375 8 8 C8 7.01 8 6.02 8 5 C7.0925 5.53625 6.185 6.0725 5.25 6.625 C2 8 2 8 -0.375 7.1875 C-0.91125 6.795625 -1.4475 6.40375 -2 6 C-0.02 5.34 1.96 4.68 4 4 C2.68 3.67 1.36 3.34 0 3 C0 2.01 0 1.02 0 0 Z " fill="#DF2927" transform="translate(88,54)"/>
<path d="M0 0 C3.0625 2.5625 3.0625 2.5625 5 5 C4.01 5 3.02 5 2 5 C1.608125 4.505 1.21625 4.01 0.8125 3.5 C-1.75014624 1.37918932 -3.82983401 1.72340532 -7.0625 1.796875 C-9.21614892 1.95227881 -9.21614892 1.95227881 -12 3 C-12.66 2.34 -13.32 1.68 -14 1 C-9.37336829 -1.53718513 -4.97335812 -1.43894629 0 0 Z " fill="#D13435" transform="translate(81,45)"/>
<path d="M0 0 C1.98 0.495 1.98 0.495 4 1 C4.25 7.625 4.25 7.625 2 11 C2 10.34 2 9.68 2 9 C1.01 8.67 0.02 8.34 -1 8 C-0.67 5.36 -0.34 2.72 0 0 Z " fill="#FCD6D2" transform="translate(99,84)"/>
<path d="M0 0 C1.32 0.33 2.64 0.66 4 1 C3.40049704 4.68266103 2.75241109 8.34543185 2 12 C1.34 12 0.68 12 0 12 C0 8.04 0 4.08 0 0 Z " fill="#FEE7E2" transform="translate(32,84)"/>
<path d="M0 0 C1.67542976 0.28604898 3.34385343 0.61781233 5 1 C4.67 2.98 4.34 4.96 4 7 C2.35 6.67 0.7 6.34 -1 6 C-1.042721 4.33388095 -1.04063832 2.66617115 -1 1 C-0.67 0.67 -0.34 0.34 0 0 Z " fill="#F1C8C2" transform="translate(97,73)"/>
<path d="M0 0 C6.0546875 -0.1953125 6.0546875 -0.1953125 8 0 C8.66 0.66 9.32 1.32 10 2 C8.68 2 7.36 2 6 2 C6 4.31 6 6.62 6 9 C5.34 8.67 4.68 8.34 4 8 C3.375 5.4375 3.375 5.4375 3 3 C2.34 3 1.68 3 1 3 C0.67 2.01 0.34 1.02 0 0 Z " fill="#D73435" transform="translate(64,68)"/>
<path d="M0 0 C0.33 0 0.66 0 1 0 C1 3.63 1 7.26 1 11 C1.99 11 2.98 11 4 11 C4.33 10.01 4.66 9.02 5 8 C5 8.66 5 9.32 5 10 C6.32 9.01 7.64 8.02 9 7 C9 8.32 9 9.64 9 11 C9.99 11.33 10.98 11.66 12 12 C8.04 12 4.08 12 0 12 C0 8.04 0 4.08 0 0 Z " fill="#CA4E4D" transform="translate(70,85)"/>
<path d="M0 0 C0.391875 0.639375 0.78375 1.27875 1.1875 1.9375 C3.38472296 4.43778819 4.75791433 4.64950425 8 5 C8 5.33 8 5.66 8 6 C5.73044814 6.22185844 3.45926245 6.42705515 1.1875 6.625 C-0.70935547 6.79902344 -0.70935547 6.79902344 -2.64453125 6.9765625 C-6 7 -6 7 -9 5 C-6 3 -6 3 -3 3 C-3 3.66 -3 4.32 -3 5 C-2.01 5 -1.02 5 0 5 C0 3.35 0 1.7 0 0 Z " fill="#D95655" transform="translate(54,91)"/>
<path d="M0 0 C0.99 0 1.98 0 3 0 C3 0.99 3 1.98 3 3 C3.99 3 4.98 3 6 3 C6 3.66 6 4.32 6 5 C5.01 5 4.02 5 3 5 C2.67 5.99 2.34 6.98 2 8 C1.01 8 0.02 8 -1 8 C-0.67 5.36 -0.34 2.72 0 0 Z " fill="#FBE4E0" transform="translate(45,88)"/>
<path d="M0 0 C1.98 0.99 1.98 0.99 4 2 C3.67 4.97 3.34 7.94 3 11 C2.01 11 1.02 11 0 11 C0 7.37 0 3.74 0 0 Z " fill="#D2252A" transform="translate(108,82)"/>
<path d="M0 0 C2.0625 0.4375 2.0625 0.4375 4 1 C4.33 2.98 4.66 4.96 5 7 C3.02 7 1.04 7 -1 7 C-1.04254356 5.00045254 -1.04080783 2.99958364 -1 1 C-0.67 0.67 -0.34 0.34 0 0 Z " fill="#F9CDCB" transform="translate(62,71)"/>
<path d="M0 0 C1.32 0 2.64 0 4 0 C5 5.75 5 5.75 5 8 C3.35 8 1.7 8 0 8 C0 5.36 0 2.72 0 0 Z " fill="#F4CAC7" transform="translate(70,70)"/>
<path d="M0 0 C-0.66 2.97 -1.32 5.94 -2 9 C-3.32 9.33 -4.64 9.66 -6 10 C-5.38909774 3.52443609 -5.38909774 3.52443609 -3.5625 1.0625 C-2 0 -2 0 0 0 Z " fill="#F8D9D8" transform="translate(40,86)"/>
<path d="M0 0 C0 3.3 0 6.6 0 10 C-0.99 10 -1.98 10 -3 10 C-3 8.68 -3 7.36 -3 6 C-3.66 6 -4.32 6 -5 6 C-2.84615385 0 -2.84615385 0 0 0 Z " fill="#FDECEF" transform="translate(82,86)"/>
<path d="M0 0 C1.67542976 0.28604898 3.34385343 0.61781233 5 1 C5 2.98 5 4.96 5 7 C4.01 7.33 3.02 7.66 2 8 C2 7.01 2 6.02 2 5 C1.34 5 0.68 5 0 5 C-0.33 5.66 -0.66 6.32 -1 7 C-1.04254356 5.00045254 -1.04080783 2.99958364 -1 1 C-0.67 0.67 -0.34 0.34 0 0 Z " fill="#FCD5C8" transform="translate(88,71)"/>
<path d="M0 0 C0.66 0 1.32 0 2 0 C2.33 1.32 2.66 2.64 3 4 C3.33 2.68 3.66 1.36 4 0 C4.66 0 5.32 0 6 0 C5.67 2.31 5.34 4.62 5 7 C3.35 6.67 1.7 6.34 0 6 C0 4.02 0 2.04 0 0 Z " fill="#FDD4D0" transform="translate(78,71)"/>
<path d="M0 0 C0.99 0 1.98 0 3 0 C3 0.99 3 1.98 3 3 C2.01 3 1.02 3 0 3 C0.99 3.99 1.98 4.98 3 6 C2.67 6.66 2.34 7.32 2 8 C0.02 7.34 -1.96 6.68 -4 6 C-2.84826645 3.53199953 -1.95216435 1.95216435 0 0 Z " fill="#D83737" transform="translate(56,53)"/>
<path d="M0 0 C0.33 0.66 0.66 1.32 1 2 C2.60875 1.87625 2.60875 1.87625 4.25 1.75 C8 2 8 2 10.4375 3.6875 C12.25953249 6.38410809 12.35430394 7.81126451 12 11 C11 9 10 7 9 5 C6.64400765 4.53248212 6.64400765 4.53248212 3.9375 4.375 C3.01839844 4.30023438 2.09929687 4.22546875 1.15234375 4.1484375 C0.44207031 4.09945312 -0.26820312 4.05046875 -1 4 C-0.67 2.68 -0.34 1.36 0 0 Z " fill="#C6302C" transform="translate(86,51)"/>
<path d="M0 0 C0.33 0.99 0.66 1.98 1 3 C-0.4375 5.6875 -0.4375 5.6875 -2 8 C-4.31 7.67 -6.62 7.34 -9 7 C-8.67 6.34 -8.34 5.68 -8 5 C-6.68 5 -5.36 5 -4 5 C-3.67 4.01 -3.34 3.02 -3 2 C-2.01 2 -1.02 2 0 2 C0 1.34 0 0.68 0 0 Z " fill="#E02C2F" transform="translate(105,102)"/>
<path d="M0 0 C0 0.99 0 1.98 0 3 C-4.455 3.495 -4.455 3.495 -9 4 C-9 3.01 -9 2.02 -9 1 C-5.8035914 -0.06546953 -3.34252724 -0.07427838 0 0 Z " fill="#EF8A81" transform="translate(105,101)"/>
<path d="M0 0 C1.32 0 2.64 0 4 0 C4 2.31 4 4.62 4 7 C3.34 6.67 2.68 6.34 2 6 C1.34 6.99 0.68 7.98 0 9 C0 6.03 0 3.06 0 0 Z " fill="#FDCFCC" transform="translate(93,84)"/>
<path d="M0 0 C0.33 0.66 0.66 1.32 1 2 C0.67 2.66 0.34 3.32 0 4 C0.66 4 1.32 4 2 4 C1.67 4.99 1.34 5.98 1 7 C-2.465 5.02 -2.465 5.02 -6 3 C-3 1 -3 1 0 0 Z " fill="#CE3736" transform="translate(83,53)"/>
<path d="M0 0 C0.99 0.33 1.98 0.66 3 1 C2.01 2.98 1.02 4.96 0 7 C-1.32 7 -2.64 7 -4 7 C-3.43628586 3.73045798 -2.50037734 2.17424117 0 0 Z " fill="#D42D2D" transform="translate(62,44)"/>
<path d="M0 0 C1.98 0 3.96 0 6 0 C5.67 1.32 5.34 2.64 5 4 C3.35 4 1.7 4 0 4 C0 2.68 0 1.36 0 0 Z " fill="#EB8480" transform="translate(68,104)"/>
<path d="M0 0 C0.33 0.66 0.66 1.32 1 2 C1.598125 1.79375 2.19625 1.5875 2.8125 1.375 C5 1 5 1 8 3 C6.56666979 3.39063507 5.12807321 3.76198474 3.6875 4.125 C2.48673828 4.43824219 2.48673828 4.43824219 1.26171875 4.7578125 C-1 5 -1 5 -4 3 C-2.68 2.67 -1.36 2.34 0 2 C0 1.34 0 0.68 0 0 Z " fill="#D42D2B" transform="translate(80,105)"/>
<path d="M0 0 C1.98 0 3.96 0 6 0 C6 1.32 6 2.64 6 4 C3.03 3.505 3.03 3.505 0 3 C0 2.01 0 1.02 0 0 Z " fill="#EE8784" transform="translate(57,103)"/>
<path d="M0 0 C0.99 0 1.98 0 3 0 C3.0825 0.61875 3.165 1.2375 3.25 1.875 C3.81258459 4.18437567 3.81258459 4.18437567 6.0625 5.25 C6.701875 5.4975 7.34125 5.745 8 6 C5 7 5 7 2 7 C1.34 4.69 0.68 2.38 0 0 Z " fill="#BE4448" transform="translate(53,86)"/>
<path d="M0 0 C-0.99 3.96 -1.98 7.92 -3 12 C-3.33 12 -3.66 12 -4 12 C-4 8.37 -4 4.74 -4 1 C-2 0 -2 0 0 0 Z " fill="#B5423D" transform="translate(47,84)"/>
<path d="M0 0 C-2.96687001 1.64826111 -5.65626525 2.44271087 -9 3 C-9.33 2.34 -9.66 1.68 -10 1 C-6.42181037 -1.33958553 -4.07775191 -0.9267618 0 0 Z " fill="#CD3434" transform="translate(78,58)"/>
<path d="M0 0 C2.31 0 4.62 0 7 0 C5.7934375 1.175625 5.7934375 1.175625 4.5625 2.375 C2.01309583 4.71982856 2.01309583 4.71982856 1 7 C0.34 7 -0.32 7 -1 7 C-0.67 4.69 -0.34 2.38 0 0 Z " fill="#D1312F" transform="translate(50,51)"/>
<path d="M0 0 C3.96 0.99 3.96 0.99 8 2 C6.125 3.0625 6.125 3.0625 4 4 C3.34 3.67 2.68 3.34 2 3 C1.34 3.66 0.68 4.32 0 5 C-0.66 4.67 -1.32 4.34 -2 4 C-1.34 2.68 -0.68 1.36 0 0 Z " fill="#E32826" transform="translate(85,98)"/>
<path d="M0 0 C0.99 0.33 1.98 0.66 3 1 C2.67 2.32 2.34 3.64 2 5 C2 4.01 2 3.02 2 2 C1.0925 2.53625 0.185 3.0725 -0.75 3.625 C-4 5 -4 5 -6.375 4.1875 C-7.179375 3.5996875 -7.179375 3.5996875 -8 3 C-7.05125 2.690625 -6.1025 2.38125 -5.125 2.0625 C-2.13919592 1.12605258 -2.13919592 1.12605258 0 0 Z " fill="#E23836" transform="translate(94,57)"/>
<path d="M0 0 C2.31 0.33 4.62 0.66 7 1 C7 1.99 7 2.98 7 4 C5.02 4 3.04 4 1 4 C0.67 2.68 0.34 1.36 0 0 Z " fill="#FFEFE7" transform="translate(56,92)"/>
<path d="M0 0 C1.98 0 3.96 0 6 0 C6.33 1.32 6.66 2.64 7 4 C5.35 3.67 3.7 3.34 2 3 C2 2.34 2 1.68 2 1 C1.34 0.67 0.68 0.34 0 0 Z " fill="#FED3D5" transform="translate(58,84)"/>
<path d="M0 0 C1.32 0.33 2.64 0.66 4 1 C2.25 5.875 2.25 5.875 0 7 C0 4.69 0 2.38 0 0 Z " fill="#FDF3EC" transform="translate(84,85)"/>
<path d="M0 0 C2.31 0 4.62 0 7 0 C6.0409375 0.6496875 6.0409375 0.6496875 5.0625 1.3125 C2.73253997 2.91239177 2.73253997 2.91239177 2 6 C1.34 6 0.68 6 0 6 C0 4.02 0 2.04 0 0 Z " fill="#C33032" transform="translate(93,72)"/>
<path d="M0 0 C0.66 0 1.32 0 2 0 C2 2.31 2 4.62 2 7 C1.34 7 0.68 7 0 7 C-0.66 5.35 -1.32 3.7 -2 2 C-1.34 2 -0.68 2 0 2 C0 1.34 0 0.68 0 0 Z " fill="#D82B29" transform="translate(99,50)"/>
<path d="M0 0 C0.66 0 1.32 0 2 0 C2 0.66 2 1.32 2 2 C2.66 2.33 3.32 2.66 4 3 C3.34 3.66 2.68 4.32 2 5 C0.65737935 4.70630173 -0.67696283 4.3721042 -2 4 C-2.99 4.495 -2.99 4.495 -4 5 C-4 4.01 -4 3.02 -4 2 C-2.68 2 -1.36 2 0 2 C0 1.34 0 0.68 0 0 Z " fill="#DA3434" transform="translate(42,81)"/>
<path d="M0 0 C1.98 0 3.96 0 6 0 C6 0.99 6 1.98 6 3 C4.35 3 2.7 3 1 3 C0.67 2.01 0.34 1.02 0 0 Z " fill="#F2908B" transform="translate(48,102)"/>
<path d="M0 0 C2.31 0.33 4.62 0.66 7 1 C6.34 2.98 5.68 4.96 5 7 C4.67 7 4.34 7 4 7 C3.896875 6.21625 3.79375 5.4325 3.6875 4.625 C3.22404978 1.66954819 3.22404978 1.66954819 0 0 Z " fill="#D42321" transform="translate(105,97)"/>
<path d="M0 0 C1.98 0.66 3.96 1.32 6 2 C6 3.32 6 4.64 6 6 C5.34 6 4.68 6 4 6 C4 5.01 4 4.02 4 3 C2.68 2.67 1.36 2.34 0 2 C0 1.34 0 0.68 0 0 Z " fill="#E53D3B" transform="translate(103,97)"/>
<path d="M0 0 C0.99 0 1.98 0 3 0 C2.625 2.9375 2.625 2.9375 2 6 C1.01 6.495 1.01 6.495 0 7 C0 4.69 0 2.38 0 0 Z " fill="#FEF4F5" transform="translate(33,85)"/>
<path d="M0 0 C-1.32 0.33 -2.64 0.66 -4 1 C-4 2.65 -4 4.3 -4 6 C-4.433125 5.0409375 -4.433125 5.0409375 -4.875 4.0625 C-5.82823451 1.84793921 -5.82823451 1.84793921 -8 1 C-2.25 -1.125 -2.25 -1.125 0 0 Z " fill="#D74D4D" transform="translate(60,71)"/>
<path d="M0 0 C2.64 0 5.28 0 8 0 C7.01 0.66 6.02 1.32 5 2 C4.01 3.485 4.01 3.485 3 5 C3 4.34 3 3.68 3 3 C2.34 3 1.68 3 1 3 C0.67 2.01 0.34 1.02 0 0 Z " fill="#E02727" transform="translate(64,68)"/>
</svg>
